<svg width="22" height="22" viewBox="0 0 22 22" fill="none" xmlns="http://www.w3.org/2000/svg">
<path d="M6.41663 20.1667C5.91246 20.1667 5.48101 19.9873 5.12229 19.6286C4.76296 19.2693 4.58329 18.8375 4.58329 18.3333C4.58329 17.8292 4.76296 17.3974 5.12229 17.0381C5.48101 16.6794 5.91246 16.5 6.41663 16.5C6.92079 16.5 7.35224 16.6794 7.71096 17.0381C8.07029 17.3974 8.24996 17.8292 8.24996 18.3333C8.24996 18.8375 8.07029 19.2693 7.71096 19.6286C7.35224 19.9873 6.92079 20.1667 6.41663 20.1667ZM15.5833 20.1667C15.0791 20.1667 14.6477 19.9873 14.289 19.6286C13.9296 19.2693 13.75 18.8375 13.75 18.3333C13.75 17.8292 13.9296 17.3974 14.289 17.0381C14.6477 16.6794 15.0791 16.5 15.5833 16.5C16.0875 16.5 16.5192 16.6794 16.8785 17.0381C17.2373 17.3974 17.4166 17.8292 17.4166 18.3333C17.4166 18.8375 17.2373 19.2693 16.8785 19.6286C16.5192 19.9873 16.0875 20.1667 15.5833 20.1667ZM4.76663 3.66667H18.2875C18.6388 3.66667 18.9062 3.82311 19.0895 4.136C19.2729 4.4495 19.2805 4.76667 19.1125 5.0875L15.8583 10.9542C15.6902 11.2597 15.4647 11.4965 15.1818 11.6646C14.8995 11.8326 14.5902 11.9167 14.2541 11.9167H7.42496L6.41663 13.75H17.4166V15.5833H6.41663C5.72913 15.5833 5.20968 15.2814 4.85829 14.6777C4.5069 14.0745 4.49163 13.475 4.81246 12.8792L6.04996 10.6333L2.74996 3.66667H0.916626V1.83334H3.89579L4.76663 3.66667Z" fill="#4A6FF5"/>
</svg>
