<svg width="49" height="49" viewBox="0 0 49 49" fill="none" xmlns="http://www.w3.org/2000/svg">
<path d="M30.8802 43.0792L13.6791 25.9292C13.475 25.725 13.3307 25.5038 13.2463 25.2656C13.1606 25.0274 13.1177 24.7722 13.1177 24.5C13.1177 24.2278 13.1606 23.9726 13.2463 23.7344C13.3307 23.4962 13.475 23.275 13.6791 23.0708L30.8802 5.86979C31.3566 5.3934 31.952 5.15521 32.6666 5.15521C33.3812 5.15521 33.9937 5.41042 34.5041 5.92083C35.0145 6.43125 35.2698 7.02674 35.2698 7.70729C35.2698 8.38785 35.0145 8.98333 34.5041 9.49375L19.4979 24.5L34.5041 39.5063C34.9805 39.9826 35.2187 40.5693 35.2187 41.2662C35.2187 41.9644 34.9635 42.5688 34.4531 43.0792C33.9427 43.5896 33.3472 43.8448 32.6666 43.8448C31.9861 43.8448 31.3906 43.5896 30.8802 43.0792Z" fill="#E6941B"/>
</svg>
